<svg width="28" height="28" viewBox="0 0 28 28" fill="none" xmlns="http://www.w3.org/2000/svg">
<path d="M20.25 19H7.75002C7.64063 18.9993 7.53333 18.97 7.43884 18.9149C7.34435 18.8597 7.26599 18.7808 7.21158 18.6859C7.15717 18.591 7.12862 18.4835 7.12878 18.3741C7.12895 18.2647 7.15783 18.1572 7.21252 18.0625C7.72737 17.1719 8.37502 14.9227 8.37502 12.125C8.37502 10.6332 8.96766 9.20242 10.0225 8.14752C11.0774 7.09263 12.5082 6.5 14 6.5C15.4919 6.5 16.9226 7.09263 17.9775 8.14752C19.0324 9.20242 19.625 10.6332 19.625 12.125C19.625 14.9234 20.2735 17.1719 20.7891 18.0625C20.8438 18.1574 20.8727 18.2649 20.8728 18.3745C20.8729 18.484 20.8442 18.5916 20.7896 18.6865C20.735 18.7815 20.6565 18.8604 20.5618 18.9154C20.467 18.9705 20.3595 18.9996 20.25 19Z" fill="#1C1C1C" fill-opacity="0.1"/>
<path d="M21.3281 17.7453C20.8945 16.9984 20.25 14.8852 20.25 12.125C20.25 10.4674 19.5915 8.87769 18.4194 7.70558C17.2473 6.53348 15.6576 5.875 14 5.875C12.3424 5.875 10.7527 6.53348 9.58059 7.70558C8.40849 8.87769 7.75001 10.4674 7.75001 12.125C7.75001 14.8859 7.1047 16.9984 6.6711 17.7453C6.56038 17.9352 6.50168 18.1509 6.50092 18.3707C6.50017 18.5905 6.55739 18.8066 6.66681 18.9973C6.77623 19.1879 6.93398 19.3463 7.12415 19.4565C7.31433 19.5667 7.53021 19.6248 7.75001 19.625H10.9383C11.0825 20.3306 11.466 20.9647 12.0239 21.4201C12.5818 21.8756 13.2798 22.1243 14 22.1243C14.7202 22.1243 15.4183 21.8756 15.9762 21.4201C16.5341 20.9647 16.9175 20.3306 17.0617 19.625H20.25C20.4697 19.6247 20.6855 19.5665 20.8756 19.4562C21.0657 19.346 21.2233 19.1875 21.3326 18.9969C21.442 18.8063 21.4991 18.5903 21.4983 18.3705C21.4975 18.1508 21.4388 17.9351 21.3281 17.7453ZM14 20.875C13.6124 20.8749 13.2343 20.7546 12.9178 20.5308C12.6013 20.3069 12.362 19.9905 12.2328 19.625H15.7672C15.638 19.9905 15.3987 20.3069 15.0822 20.5308C14.7657 20.7546 14.3877 20.8749 14 20.875ZM7.75001 18.375C8.35157 17.3406 9.00001 14.9438 9.00001 12.125C9.00001 10.7989 9.52679 9.52715 10.4645 8.58947C11.4022 7.65178 12.6739 7.125 14 7.125C15.3261 7.125 16.5979 7.65178 17.5355 8.58947C18.4732 9.52715 19 10.7989 19 12.125C19 14.9414 19.6469 17.3383 20.25 18.375H7.75001Z" fill="#1C1C1C"/>
</svg>
